<?xml version="1.0" standalone="no"?>
<!DOCTYPE svg PUBLIC "-//W3C//DTD SVG 20010904//EN"
 "http://www.w3.org/TR/2001/REC-SVG-20010904/DTD/svg10.dtd">
<svg version="1.0" xmlns="http://www.w3.org/2000/svg"
 width="500.000000pt" height="500.000000pt" viewBox="0 0 500.000000 500.000000"
 preserveAspectRatio="xMidYMid meet">
<metadata>
Created by potrace 1.14, written by Peter Selinger 2001-2017
</metadata>
<g transform="translate(0.000000,500.000000) scale(0.100000,-0.100000)"
fill="#000000" stroke="none">
<path d="M0 2500 l0 -2500 2500 0 2500 0 0 2500 0 2500 -2500 0 -2500 0 0
-2500z m2516 1650 c58 -53 67 -94 75 -340 13 -384 39 -924 45 -945 13 -41 23
-45 71 -23 57 25 144 27 198 4 22 -9 57 -34 78 -54 36 -35 41 -37 97 -34 70 4
130 -19 182 -70 56 -54 88 -128 114 -258 19 -101 18 -183 -6 -339 -24 -158
-46 -249 -106 -430 -45 -134 -45 -138 -40 -234 3 -53 13 -145 22 -204 9 -59
14 -125 11 -146 -7 -50 -45 -99 -104 -131 -53 -30 -202 -85 -248 -92 -16 -3
-46 -10 -65 -17 -57 -19 -341 -15 -423 6 -104 28 -146 44 -224 89 -90 51 -98
70 -82 184 16 113 16 271 1 317 -11 30 -24 43 -65 64 -330 166 -518 496 -417
731 31 71 99 132 149 132 20 0 46 8 58 18 20 16 22 28 26 192 5 183 12 225 50
281 54 81 138 100 232 54 109 -53 110 -52 101 268 -3 144 -9 402 -12 572 l-5
310 23 40 c36 61 88 86 170 83 55 -3 72 -8 94 -28z"/>
</g>
</svg>
